# xmcd
#
# Track frame offsets:
#  150
#  17210
#  32739
#  45014
#  59357
#  71539
#  87525
#  95497
#  111343
#  125245
#  135859
#  155025
#  169107
#
# Disc length: 2430 seconds
#
# Revision: 0
# Processed by: cddbd v1.5.1PL2 Copyright (c) Steve Scherf et al.
# Submitted via: Collectorz.com_Music_Collector 6.10
#
DISCID=ae097c0d
DTITLE=Pete Hicks and Friends - Trail Ride
DYEAR=1900
DGENRE=Acoustic
TTITLE0=Black and White Rag
TTITLE1=Get Along Little Dogies
TTITLE2=South of the Border
TTITLE3=Jeepers Creepers
TTITLE4=Ragtime Annie
TTITLE5=Cowboy's Lament
TTITLE6=Amazing Grace
TTITLE7=Take Me Back To Tulsa
TTITLE8=Misery
TTITLE9=Cattle Call
TTITLE10=Orange Blossom Special
TTITLE11=Elmer McCurdy
TTITLE12=Gonna Lay Down My Old Guitar
EXTD=
EXTT0=
EXTT1=
EXTT2=
EXTT3=
EXTT4=
EXTT5=
EXTT6=
EXTT7=
EXTT8=
EXTT9=
EXTT10=
EXTT11=
EXTT12=
PLAYORDER=
